<svg width="132" height="129" viewBox="0 0 132 129" fill="none" xmlns="http://www.w3.org/2000/svg">
<path d="M26.9531 -0.000136442C26.1738 0.0122901 25.4299 0.327501 24.8789 0.87877L0.878906 24.8788C0.316298 25.4413 0.000153375 26.2043 0 26.9999V95.9999C0.000153375 96.7955 0.316298 97.5584 0.878906 98.121L30.8789 128.121C31.2985 128.54 31.833 128.826 32.4148 128.941C32.9967 129.057 33.5997 128.998 34.1478 128.771C34.6959 128.544 35.1643 128.159 35.494 127.666C35.8237 127.173 35.9998 126.593 36 126V64.2421L63.8789 92.121C64.4415 92.6834 65.2045 92.9993 66 92.9993C66.7955 92.9993 67.5585 92.6834 68.1211 92.121L96 64.2421V126C96.0002 126.593 96.1763 127.173 96.506 127.666C96.8357 128.159 97.3041 128.544 97.8522 128.771C98.4003 128.998 99.0033 129.057 99.5851 128.941C100.167 128.826 100.701 128.54 101.121 128.121L131.121 98.121C131.684 97.5584 132 96.7955 132 95.9999V26.9999C132 26.2043 131.684 25.4413 131.121 24.8788L107.121 0.87877C106.558 0.316373 105.796 0.000441485 105 0.000441485C104.204 0.000441485 103.442 0.316373 102.879 0.87877L66 37.7577L29.1211 0.87877C28.837 0.594549 28.4987 0.370295 28.1263 0.219315C27.7539 0.0683363 27.3549 -0.00629024 26.9531 -0.000136442ZM27 7.24205L63 43.2421V82.7577L7.24219 26.9999L27 7.24205ZM105 7.24205L124.758 26.9999L69 82.7577V43.2421L105 7.24205ZM6 34.2421L30 58.2421V118.758L6 94.7577V34.2421ZM126 34.2421V94.7577L102 118.758V58.2421L126 34.2421Z" fill="white"/>
</svg>
